<svg id="Слой_1" data-name="Слой 1" xmlns="http://www.w3.org/2000/svg" viewBox="0 0 500 500">
  <g>
    <line x1="192.28" y1="303.52" x2="197.04" y2="298.33" fill="none" stroke="#000" stroke-linecap="round" stroke-miterlimit="10" stroke-width="2"/>
    <line x1="184.91" y1="311.26" x2="189.68" y2="306.07" fill="none" stroke="#000" stroke-linecap="round" stroke-miterlimit="10" stroke-width="2"/>
    <line x1="174.66" y1="312.84" x2="181.17" y2="312.67" fill="none" stroke="#000" stroke-linecap="round" stroke-miterlimit="10" stroke-width="2"/>
    <line x1="174.49" y1="312.84" x2="181" y2="312.67" fill="none" stroke="#000" stroke-linecap="round" stroke-miterlimit="10" stroke-width="2"/>
    <line x1="163.47" y1="313.26" x2="170.91" y2="312.63" fill="none" stroke="#000" stroke-linecap="round" stroke-miterlimit="10" stroke-width="2"/>
    <line x1="152.32" y1="313.69" x2="159.77" y2="313.65" fill="none" stroke="#000" stroke-linecap="round" stroke-miterlimit="10" stroke-width="2"/>
    <line x1="141.04" y1="315.39" x2="148.8" y2="313.67" fill="none" stroke="#000" stroke-linecap="round" stroke-miterlimit="10" stroke-width="2"/>
    <line x1="127.85" y1="317.61" x2="137.55" y2="315.99" fill="none" stroke="#000" stroke-linecap="round" stroke-miterlimit="10" stroke-width="2"/>
    <line x1="117.68" y1="319.65" x2="124.53" y2="318.97" fill="none" stroke="#000" stroke-linecap="round" stroke-miterlimit="10" stroke-width="2"/>
    <line x1="107.64" y1="321.09" x2="114.19" y2="320.03" fill="none" stroke="#000" stroke-linecap="round" stroke-miterlimit="10" stroke-width="2"/>
    <line x1="98.19" y1="324.8" x2="104.32" y2="322.63" fill="none" stroke="#000" stroke-linecap="round" stroke-miterlimit="10" stroke-width="2"/>
    <line x1="90.06" y1="333.61" x2="94.4" y2="327.09" fill="none" stroke="#000" stroke-linecap="round" stroke-miterlimit="10" stroke-width="2"/>
    <line x1="93.47" y1="346.88" x2="89.89" y2="337.31" fill="none" stroke="#000" stroke-linecap="round" stroke-miterlimit="10" stroke-width="2"/>
    <line x1="102.96" y1="353.39" x2="96.66" y2="349.69" fill="none" stroke="#000" stroke-linecap="round" stroke-miterlimit="10" stroke-width="2"/>
    <line x1="115.47" y1="358.21" x2="107" y2="354.38" fill="none" stroke="#000" stroke-linecap="round" stroke-miterlimit="10" stroke-width="2"/>
    <line x1="128.78" y1="362.71" x2="119.49" y2="359.55" fill="none" stroke="#000" stroke-linecap="round" stroke-miterlimit="10" stroke-width="2"/>
    <line x1="151.77" y1="367.82" x2="143.28" y2="366.32" fill="none" stroke="#000" stroke-linecap="round" stroke-miterlimit="10" stroke-width="2"/>
    <line x1="163.51" y1="368.75" x2="155.66" y2="368.11" fill="none" stroke="#000" stroke-linecap="round" stroke-miterlimit="10" stroke-width="2"/>
    <line x1="176.79" y1="369.31" x2="167.49" y2="368.74" fill="none" stroke="#000" stroke-linecap="round" stroke-miterlimit="10" stroke-width="2"/>
    <line x1="190.15" y1="370.12" x2="181.15" y2="369.55" fill="none" stroke="#000" stroke-linecap="round" stroke-miterlimit="10" stroke-width="2"/>
    <line x1="201.68" y1="370.71" x2="194.89" y2="370.49" fill="none" stroke="#000" stroke-linecap="round" stroke-miterlimit="10" stroke-width="2"/>
    <line x1="212.74" y1="370.97" x2="205.96" y2="370.74" fill="none" stroke="#000" stroke-linecap="round" stroke-miterlimit="10" stroke-width="2"/>
    <line x1="225.89" y1="371.86" x2="217.06" y2="371.24" fill="none" stroke="#000" stroke-linecap="round" stroke-miterlimit="10" stroke-width="2"/>
    <line x1="235.58" y1="370.8" x2="229.42" y2="371.49" fill="none" stroke="#000" stroke-linecap="round" stroke-miterlimit="10" stroke-width="2"/>
    <line x1="245.84" y1="370.85" x2="239.6" y2="370.85" fill="none" stroke="#000" stroke-linecap="round" stroke-miterlimit="10" stroke-width="2"/>
    <line x1="255.46" y1="370.59" x2="249.22" y2="370.59" fill="none" stroke="#000" stroke-linecap="round" stroke-miterlimit="10" stroke-width="2"/>
    <line x1="266.7" y1="373.31" x2="259.47" y2="372.81" fill="none" stroke="#000" stroke-linecap="round" stroke-miterlimit="10" stroke-width="2"/>
    <line x1="278.15" y1="375.69" x2="270.02" y2="373.44" fill="none" stroke="#000" stroke-linecap="round" stroke-miterlimit="10" stroke-width="2"/>
    <line x1="288.57" y1="374.88" x2="281.89" y2="375.31" fill="none" stroke="#000" stroke-linecap="round" stroke-miterlimit="10" stroke-width="2"/>
    <line x1="300.36" y1="375.52" x2="292.91" y2="375.52" fill="none" stroke="#000" stroke-linecap="round" stroke-miterlimit="10" stroke-width="2"/>
    <line x1="311.47" y1="374.63" x2="304.66" y2="375.22" fill="none" stroke="#000" stroke-linecap="round" stroke-miterlimit="10" stroke-width="2"/>
    <line x1="322.32" y1="376.63" x2="315.26" y2="374.97" fill="none" stroke="#000" stroke-linecap="round" stroke-miterlimit="10" stroke-width="2"/>
    <line x1="331.64" y1="375.39" x2="326.15" y2="376.63" fill="none" stroke="#000" stroke-linecap="round" stroke-miterlimit="10" stroke-width="2"/>
    <line x1="341.3" y1="376.85" x2="335.44" y2="375.67" fill="none" stroke="#000" stroke-linecap="round" stroke-miterlimit="10" stroke-width="2"/>
    <line x1="341.39" y1="376.85" x2="335.53" y2="375.67" fill="none" stroke="#000" stroke-linecap="round" stroke-miterlimit="10" stroke-width="2"/>
    <line x1="351.83" y1="373.69" x2="345.49" y2="376.5" fill="none" stroke="#000" stroke-linecap="round" stroke-miterlimit="10" stroke-width="2"/>
    <line x1="361.18" y1="374.84" x2="355.61" y2="373.85" fill="none" stroke="#000" stroke-linecap="round" stroke-miterlimit="10" stroke-width="2"/>
    <line x1="372.51" y1="372.22" x2="365.5" y2="374.58" fill="none" stroke="#000" stroke-linecap="round" stroke-miterlimit="10" stroke-width="2"/>
    <line x1="384.16" y1="373.91" x2="376.67" y2="372.32" fill="none" stroke="#000" stroke-linecap="round" stroke-miterlimit="10" stroke-width="2"/>
    <line x1="396.06" y1="371.14" x2="388.51" y2="373.47" fill="none" stroke="#000" stroke-linecap="round" stroke-miterlimit="10" stroke-width="2"/>
    <line x1="405.61" y1="370.28" x2="400.16" y2="371.14" fill="none" stroke="#000" stroke-linecap="round" stroke-miterlimit="10" stroke-width="2"/>
    <line x1="410.07" y1="362.17" x2="408.48" y2="367.95" fill="none" stroke="#000" stroke-linecap="round" stroke-miterlimit="10" stroke-width="2"/>
    <line x1="402.99" y1="354.48" x2="408.67" y2="359.3" fill="none" stroke="#000" stroke-linecap="round" stroke-miterlimit="10" stroke-width="2"/>
    <line x1="394.69" y1="349.15" x2="399.51" y2="352.34" fill="none" stroke="#000" stroke-linecap="round" stroke-miterlimit="10" stroke-width="2"/>
    <line x1="384.45" y1="345.7" x2="390.89" y2="347.52" fill="none" stroke="#000" stroke-linecap="round" stroke-miterlimit="10" stroke-width="2"/>
    <line x1="373.95" y1="344.23" x2="380.49" y2="344.65" fill="none" stroke="#000" stroke-linecap="round" stroke-miterlimit="10" stroke-width="2"/>
    <line x1="364.88" y1="346.02" x2="370.5" y2="344.78" fill="none" stroke="#000" stroke-linecap="round" stroke-miterlimit="10" stroke-width="2"/>
    <line x1="353.3" y1="350.65" x2="360.67" y2="347.84" fill="none" stroke="#000" stroke-linecap="round" stroke-miterlimit="10" stroke-width="2"/>
    <line x1="342.16" y1="352.75" x2="349.21" y2="351.48" fill="none" stroke="#000" stroke-linecap="round" stroke-miterlimit="10" stroke-width="2"/>
    <line x1="332.3" y1="348.57" x2="338.23" y2="351.8" fill="none" stroke="#000" stroke-linecap="round" stroke-miterlimit="10" stroke-width="2"/>
    <line x1="321.22" y1="347.62" x2="328.63" y2="347.36" fill="none" stroke="#000" stroke-linecap="round" stroke-miterlimit="10" stroke-width="2"/>
    <line x1="308.97" y1="347.42" x2="317.59" y2="347.36" fill="none" stroke="#000" stroke-linecap="round" stroke-miterlimit="10" stroke-width="2"/>
    <line x1="296.74" y1="347.87" x2="305.17" y2="347.3" fill="none" stroke="#000" stroke-linecap="round" stroke-miterlimit="10" stroke-width="2"/>
    <line x1="285.61" y1="346.91" x2="292.91" y2="347.68" fill="none" stroke="#000" stroke-linecap="round" stroke-miterlimit="10" stroke-width="2"/>
    <line x1="275.04" y1="346.59" x2="281.87" y2="346.91" fill="none" stroke="#000" stroke-linecap="round" stroke-miterlimit="10" stroke-width="2"/>
    <line x1="264.57" y1="347.49" x2="271.24" y2="346.91" fill="none" stroke="#000" stroke-linecap="round" stroke-miterlimit="10" stroke-width="2"/>
    <line x1="254.97" y1="347.36" x2="261.7" y2="347.84" fill="none" stroke="#000" stroke-linecap="round" stroke-miterlimit="10" stroke-width="2"/>
    <line x1="244.47" y1="345.61" x2="251.27" y2="347.07" fill="none" stroke="#000" stroke-linecap="round" stroke-miterlimit="10" stroke-width="2"/>
    <line x1="234.57" y1="343.34" x2="241.24" y2="345.29" fill="none" stroke="#000" stroke-linecap="round" stroke-miterlimit="10" stroke-width="2"/>
    <line x1="224.49" y1="339.76" x2="231.61" y2="342.06" fill="none" stroke="#000" stroke-linecap="round" stroke-miterlimit="10" stroke-width="2"/>
    <line x1="214.6" y1="337.53" x2="221.71" y2="338.46" fill="none" stroke="#000" stroke-linecap="round" stroke-miterlimit="10" stroke-width="2"/>
    <line x1="203.65" y1="336.92" x2="210.96" y2="337.08" fill="none" stroke="#000" stroke-linecap="round" stroke-miterlimit="10" stroke-width="2"/>
    <line x1="192.8" y1="337.37" x2="200.2" y2="337.85" fill="none" stroke="#000" stroke-linecap="round" stroke-miterlimit="10" stroke-width="2"/>
    <line x1="182.98" y1="337.58" x2="190.38" y2="335.92" fill="none" stroke="#000" stroke-linecap="round" stroke-miterlimit="10" stroke-width="2"/>
    <line x1="175.24" y1="343.98" x2="180.45" y2="337.98" fill="none" stroke="#000" stroke-linecap="round" stroke-miterlimit="10" stroke-width="2"/>
    <line x1="165.16" y1="349.4" x2="172.53" y2="344.81" fill="none" stroke="#000" stroke-linecap="round" stroke-miterlimit="10" stroke-width="2"/>
    <line x1="157.85" y1="353.41" x2="162.54" y2="350.45" fill="none" stroke="#000" stroke-linecap="round" stroke-miterlimit="10" stroke-width="2"/>
    <line x1="150.99" y1="358.95" x2="155.68" y2="355.98" fill="none" stroke="#000" stroke-linecap="round" stroke-miterlimit="10" stroke-width="2"/>
    <line x1="142.66" y1="363.76" x2="147.35" y2="360.8" fill="none" stroke="#000" stroke-linecap="round" stroke-miterlimit="10" stroke-width="2"/>
    <line x1="137.62" y1="371.52" x2="140.2" y2="367.69" fill="none" stroke="#000" stroke-linecap="round" stroke-miterlimit="10" stroke-width="2"/>
    <line x1="142.57" y1="378.8" x2="137.43" y2="374.58" fill="none" stroke="#000" stroke-linecap="round" stroke-miterlimit="10" stroke-width="2"/>
    <line x1="153.04" y1="385.82" x2="146.19" y2="380.67" fill="none" stroke="#000" stroke-linecap="round" stroke-miterlimit="10" stroke-width="2"/>
    <line x1="163.77" y1="387.14" x2="157.13" y2="386.75" fill="none" stroke="#000" stroke-linecap="round" stroke-miterlimit="10" stroke-width="2"/>
    <line x1="176.7" y1="385.52" x2="167.72" y2="386.41" fill="none" stroke="#000" stroke-linecap="round" stroke-miterlimit="10" stroke-width="2"/>
    <line x1="187.04" y1="385.44" x2="179.6" y2="385.65" fill="none" stroke="#000" stroke-linecap="round" stroke-miterlimit="10" stroke-width="2"/>
    <line x1="199.43" y1="385.18" x2="190.87" y2="385.61" fill="none" stroke="#000" stroke-linecap="round" stroke-miterlimit="10" stroke-width="2"/>
    <line x1="212.19" y1="384.75" x2="203.21" y2="384.8" fill="none" stroke="#000" stroke-linecap="round" stroke-miterlimit="10" stroke-width="2"/>
    <line x1="222.23" y1="381.86" x2="215.55" y2="383.73" fill="none" stroke="#000" stroke-linecap="round" stroke-miterlimit="10" stroke-width="2"/>
    <line x1="231.98" y1="380.84" x2="225.04" y2="381.73" fill="none" stroke="#000" stroke-linecap="round" stroke-miterlimit="10" stroke-width="2"/>
    <line x1="243.81" y1="379.09" x2="234.91" y2="380.46" fill="none" stroke="#000" stroke-linecap="round" stroke-miterlimit="10" stroke-width="2"/>
    <line x1="252.89" y1="376.84" x2="246.98" y2="378.46" fill="none" stroke="#000" stroke-linecap="round" stroke-miterlimit="10" stroke-width="2"/>
    <line x1="259.85" y1="369.05" x2="255.24" y2="374.25" fill="none" stroke="#000" stroke-linecap="round" stroke-miterlimit="10" stroke-width="2"/>
    <line x1="266.66" y1="361.44" x2="261.87" y2="366.12" fill="none" stroke="#000" stroke-linecap="round" stroke-miterlimit="10" stroke-width="2"/>
    <line x1="275.6" y1="357.56" x2="270.11" y2="359.44" fill="none" stroke="#000" stroke-linecap="round" stroke-miterlimit="10" stroke-width="2"/>
    <line x1="284.79" y1="354.24" x2="279.3" y2="356.12" fill="none" stroke="#000" stroke-linecap="round" stroke-miterlimit="10" stroke-width="2"/>
    <line x1="293.77" y1="349.39" x2="288.06" y2="351.99" fill="none" stroke="#000" stroke-linecap="round" stroke-miterlimit="10" stroke-width="2"/>
    <line x1="295" y1="339.78" x2="295.26" y2="345.82" fill="none" stroke="#000" stroke-linecap="round" stroke-miterlimit="10" stroke-width="2"/>
    <line x1="300.57" y1="333.09" x2="296.21" y2="336.11" fill="none" stroke="#000" stroke-linecap="round" stroke-miterlimit="10" stroke-width="2"/>
    <line x1="310.21" y1="327.78" x2="303.68" y2="331.13" fill="none" stroke="#000" stroke-linecap="round" stroke-miterlimit="10" stroke-width="2"/>
    <line x1="314.91" y1="319.09" x2="312.91" y2="324.88" fill="none" stroke="#000" stroke-linecap="round" stroke-miterlimit="10" stroke-width="2"/>
    <line x1="318.28" y1="311.22" x2="315.93" y2="316.03" fill="none" stroke="#000" stroke-linecap="round" stroke-miterlimit="10" stroke-width="2"/>
    <line x1="139.94" y1="365.18" x2="132.43" y2="363.89" fill="none" stroke="#000" stroke-linecap="round" stroke-miterlimit="10" stroke-width="2"/>
    <line x1="255.09" y1="117.41" x2="260.74" y2="117.31" fill="none" stroke="#000" stroke-linecap="round" stroke-miterlimit="10" stroke-width="2"/>
    <line x1="268.16" y1="117.58" x2="274.19" y2="118.63" fill="none" stroke="#000" stroke-linecap="round" stroke-miterlimit="10" stroke-width="2"/>
    <line x1="277.39" y1="119.88" x2="285.94" y2="125.56" fill="none" stroke="#000" stroke-linecap="round" stroke-miterlimit="10" stroke-width="2"/>
    <line x1="286.84" y1="127.71" x2="285.3" y2="134.58" fill="none" stroke="#000" stroke-linecap="round" stroke-miterlimit="10" stroke-width="2"/>
    <line x1="285.72" y1="137.9" x2="290.74" y2="143.95" fill="none" stroke="#000" stroke-linecap="round" stroke-miterlimit="10" stroke-width="2"/>
    <circle cx="143.07" cy="367.59" r="3.28" fill="none" stroke="#000" stroke-miterlimit="10" stroke-width="2"/>
    <circle cx="136.3" cy="372.82" r="3.28" fill="none" stroke="#000" stroke-miterlimit="10" stroke-width="2"/>
    <circle cx="144.38" cy="379.84" r="3.28" fill="none" stroke="#000" stroke-miterlimit="10" stroke-width="2"/>
    <circle cx="154.9" cy="386.56" r="3.28" fill="none" stroke="#000" stroke-miterlimit="10" stroke-width="2"/>
    <circle cx="165.87" cy="386.56" r="3.28" fill="none" stroke="#000" stroke-miterlimit="10" stroke-width="2"/>
    <circle cx="177.45" cy="385.2" r="3.28" fill="none" stroke="#000" stroke-miterlimit="10" stroke-width="2"/>
    <circle cx="188.68" cy="385.03" r="3.28" fill="none" stroke="#000" stroke-miterlimit="10" stroke-width="2"/>
    <circle cx="201.28" cy="384.52" r="3.28" fill="none" stroke="#000" stroke-miterlimit="10" stroke-width="2"/>
    <circle cx="214.02" cy="384.13" r="3.28" fill="none" stroke="#000" stroke-miterlimit="10" stroke-width="2"/>
    <circle cx="222.87" cy="381.07" r="3.28" fill="none" stroke="#000" stroke-miterlimit="10" stroke-width="2"/>
    <circle cx="233.25" cy="379.88" r="3.28" fill="none" stroke="#000" stroke-miterlimit="10" stroke-width="2"/>
    <circle cx="244.82" cy="378.86" r="3.28" fill="none" stroke="#000" stroke-miterlimit="10" stroke-width="2"/>
    <circle cx="254.44" cy="375.45" r="3.28" fill="none" stroke="#000" stroke-miterlimit="10" stroke-width="2"/>
    <circle cx="260.48" cy="367.28" r="3.28" fill="none" stroke="#000" stroke-miterlimit="10" stroke-width="2"/>
    <circle cx="267.97" cy="360.3" r="3.28" fill="none" stroke="#000" stroke-miterlimit="10" stroke-width="2"/>
    <circle cx="277.33" cy="356.39" r="3.28" fill="none" stroke="#000" stroke-miterlimit="10" stroke-width="2"/>
    <circle cx="286.36" cy="352.82" r="3.28" fill="none" stroke="#000" stroke-miterlimit="10" stroke-width="2"/>
    <circle cx="290.27" cy="345.5" r="3.28" fill="none" stroke="#000" stroke-miterlimit="10" stroke-width="2"/>
    <circle cx="294.7" cy="337.67" r="3.28" fill="none" stroke="#000" stroke-miterlimit="10" stroke-width="2"/>
    <circle cx="302.34" cy="332.59" r="3.28" fill="none" stroke="#000" stroke-miterlimit="10" stroke-width="2"/>
    <circle cx="311.78" cy="326.72" r="3.28" fill="none" stroke="#000" stroke-miterlimit="10" stroke-width="2"/>
    <circle cx="315.36" cy="317.27" r="3.28" fill="none" stroke="#000" stroke-miterlimit="10" stroke-width="2"/>
    <circle cx="183.38" cy="312.3" r="3.28" fill="none" stroke="#000" stroke-miterlimit="10" stroke-width="2"/>
    <circle cx="284.66" cy="135.86" r="3.28" fill="none" stroke="#000" stroke-miterlimit="10" stroke-width="2"/>
    <circle cx="290.96" cy="145.22" r="3.28" fill="none" stroke="#000" stroke-miterlimit="10" stroke-width="2"/>
    <circle cx="232.83" cy="144.12" r="3.28" fill="none" stroke="#000" stroke-miterlimit="10" stroke-width="2"/>
    <circle cx="190.87" cy="304.37" r="3.28" fill="none" stroke="#000" stroke-miterlimit="10" stroke-width="2"/>
    <circle cx="172.83" cy="312.2" r="3.28" fill="none" stroke="#000" stroke-miterlimit="10" stroke-width="2"/>
    <circle cx="161.6" cy="312.88" r="3.28" fill="none" stroke="#000" stroke-miterlimit="10" stroke-width="2"/>
    <circle cx="150.7" cy="313.22" r="3.28" fill="none" stroke="#000" stroke-miterlimit="10" stroke-width="2"/>
    <circle cx="139.13" cy="314.92" r="3.28" fill="none" stroke="#000" stroke-miterlimit="10" stroke-width="2"/>
    <circle cx="125.98" cy="317.95" r="3.28" fill="none" stroke="#000" stroke-miterlimit="10" stroke-width="2"/>
    <circle cx="115.77" cy="319.31" r="3.28" fill="none" stroke="#000" stroke-miterlimit="10" stroke-width="2"/>
    <circle cx="105.89" cy="321.35" r="3.28" fill="none" stroke="#000" stroke-miterlimit="10" stroke-width="2"/>
    <circle cx="96.02" cy="325.44" r="3.28" fill="none" stroke="#000" stroke-miterlimit="10" stroke-width="2"/>
    <circle cx="89.38" cy="335.39" r="3.28" fill="none" stroke="#000" stroke-miterlimit="10" stroke-width="2"/>
    <circle cx="94.83" cy="348.84" r="3.28" fill="none" stroke="#000" stroke-miterlimit="10" stroke-width="2"/>
    <circle cx="105.04" cy="353.61" r="3.28" fill="none" stroke="#000" stroke-miterlimit="10" stroke-width="2"/>
    <circle cx="117.47" cy="358.71" r="3.28" fill="none" stroke="#000" stroke-miterlimit="10" stroke-width="2"/>
    <circle cx="130.7" cy="363.09" r="3.28" fill="none" stroke="#000" stroke-miterlimit="10" stroke-width="2"/>
    <circle cx="141.43" cy="365.48" r="3.28" fill="none" stroke="#000" stroke-miterlimit="10" stroke-width="2"/>
    <circle cx="165.26" cy="368.37" r="3.28" fill="none" stroke="#000" stroke-miterlimit="10" stroke-width="2"/>
    <circle cx="179.04" cy="369.39" r="3.28" fill="none" stroke="#000" stroke-miterlimit="10" stroke-width="2"/>
    <circle cx="192.66" cy="370.07" r="3.28" fill="none" stroke="#000" stroke-miterlimit="10" stroke-width="2"/>
    <circle cx="203.85" cy="370.37" r="3.28" fill="none" stroke="#000" stroke-miterlimit="10" stroke-width="2"/>
    <circle cx="214.83" cy="370.88" r="3.28" fill="none" stroke="#000" stroke-miterlimit="10" stroke-width="2"/>
    <circle cx="227.64" cy="370.92" r="3.28" fill="none" stroke="#000" stroke-miterlimit="10" stroke-width="2"/>
    <circle cx="237.3" cy="371.05" r="3.28" fill="none" stroke="#000" stroke-miterlimit="10" stroke-width="2"/>
    <circle cx="247.17" cy="370.03" r="3.28" fill="none" stroke="#000" stroke-miterlimit="10" stroke-width="2"/>
    <circle cx="257.81" cy="371.56" r="3.28" fill="none" stroke="#000" stroke-miterlimit="10" stroke-width="2"/>
    <circle cx="268.28" cy="372.58" r="3.28" fill="none" stroke="#000" stroke-miterlimit="10" stroke-width="2"/>
    <circle cx="279.77" cy="374.88" r="3.28" fill="none" stroke="#000" stroke-miterlimit="10" stroke-width="2"/>
    <circle cx="290.53" cy="374.84" r="3.28" fill="none" stroke="#000" stroke-miterlimit="10" stroke-width="2"/>
    <circle cx="302.28" cy="375.09" r="3.28" fill="none" stroke="#000" stroke-miterlimit="10" stroke-width="2"/>
    <circle cx="313" cy="374.07" r="3.28" fill="none" stroke="#000" stroke-miterlimit="10" stroke-width="2"/>
    <circle cx="324.13" cy="376.58" r="3.28" fill="none" stroke="#000" stroke-miterlimit="10" stroke-width="2"/>
    <circle cx="333.32" cy="374.58" r="3.28" fill="none" stroke="#000" stroke-miterlimit="10" stroke-width="2"/>
    <circle cx="343.13" cy="376.56" r="3.28" fill="none" stroke="#000" stroke-miterlimit="10" stroke-width="2"/>
    <circle cx="353.6" cy="372.8" r="3.28" fill="none" stroke="#000" stroke-miterlimit="10" stroke-width="2"/>
    <circle cx="363.04" cy="374.78" r="3.28" fill="none" stroke="#000" stroke-miterlimit="10" stroke-width="2"/>
    <circle cx="374.28" cy="371.52" r="3.28" fill="none" stroke="#000" stroke-miterlimit="10" stroke-width="2"/>
    <circle cx="386.28" cy="374.01" r="3.28" fill="none" stroke="#000" stroke-miterlimit="10" stroke-width="2"/>
    <circle cx="397.77" cy="370.5" r="3.28" fill="none" stroke="#000" stroke-miterlimit="10" stroke-width="2"/>
    <circle cx="407.51" cy="369.99" r="3.28" fill="none" stroke="#000" stroke-miterlimit="10" stroke-width="2"/>
    <circle cx="410.62" cy="360.03" r="3.28" fill="none" stroke="#000" stroke-miterlimit="10" stroke-width="2"/>
    <circle cx="401.38" cy="353.01" r="3.28" fill="none" stroke="#000" stroke-miterlimit="10" stroke-width="2"/>
    <circle cx="393.04" cy="347.9" r="3.28" fill="none" stroke="#000" stroke-miterlimit="10" stroke-width="2"/>
    <circle cx="382.53" cy="344.54" r="3.28" fill="none" stroke="#000" stroke-miterlimit="10" stroke-width="2"/>
    <circle cx="372.32" cy="343.69" r="3.28" fill="none" stroke="#000" stroke-miterlimit="10" stroke-width="2"/>
    <circle cx="362.57" cy="346.54" r="3.28" fill="none" stroke="#000" stroke-miterlimit="10" stroke-width="2"/>
    <circle cx="351" cy="350.63" r="3.28" fill="none" stroke="#000" stroke-miterlimit="10" stroke-width="2"/>
    <circle cx="340.11" cy="352.33" r="3.28" fill="none" stroke="#000" stroke-miterlimit="10" stroke-width="2"/>
    <circle cx="330.79" cy="347.09" r="3.28" fill="none" stroke="#000" stroke-miterlimit="10" stroke-width="2"/>
    <circle cx="319.55" cy="347.09" r="3.28" fill="none" stroke="#000" stroke-miterlimit="10" stroke-width="2"/>
    <circle cx="306.96" cy="346.75" r="3.28" fill="none" stroke="#000" stroke-miterlimit="10" stroke-width="2"/>
    <circle cx="294.36" cy="347.44" r="3.28" fill="none" stroke="#000" stroke-miterlimit="10" stroke-width="2"/>
    <circle cx="283.89" cy="346.41" r="3.28" fill="none" stroke="#000" stroke-miterlimit="10" stroke-width="2"/>
    <circle cx="272.91" cy="346.41" r="3.28" fill="none" stroke="#000" stroke-miterlimit="10" stroke-width="2"/>
    <circle cx="262.7" cy="346.92" r="3.28" fill="none" stroke="#000" stroke-miterlimit="10" stroke-width="2"/>
    <circle cx="253" cy="346.67" r="3.28" fill="none" stroke="#000" stroke-miterlimit="10" stroke-width="2"/>
    <circle cx="243.13" cy="344.24" r="3.28" fill="none" stroke="#000" stroke-miterlimit="10" stroke-width="2"/>
    <circle cx="233.68" cy="341.43" r="3.28" fill="none" stroke="#000" stroke-miterlimit="10" stroke-width="2"/>
    <circle cx="223.22" cy="338.63" r="3.28" fill="none" stroke="#000" stroke-miterlimit="10" stroke-width="2"/>
    <circle cx="212.75" cy="336.84" r="3.28" fill="none" stroke="#000" stroke-miterlimit="10" stroke-width="2"/>
    <circle cx="202.28" cy="336.84" r="3.28" fill="none" stroke="#000" stroke-miterlimit="10" stroke-width="2"/>
    <circle cx="191.56" cy="335.95" r="3.28" fill="none" stroke="#000" stroke-miterlimit="10" stroke-width="2"/>
    <circle cx="181.5" cy="337.33" r="3.28" fill="none" stroke="#000" stroke-miterlimit="10" stroke-width="2"/>
    <circle cx="174.09" cy="343.97" r="3.28" fill="none" stroke="#000" stroke-miterlimit="10" stroke-width="2"/>
    <circle cx="163.62" cy="349.33" r="3.28" fill="none" stroke="#000" stroke-miterlimit="10" stroke-width="2"/>
    <circle cx="156.47" cy="354.44" r="3.28" fill="none" stroke="#000" stroke-miterlimit="10" stroke-width="2"/>
    <circle cx="149.07" cy="359.8" r="3.28" fill="none" stroke="#000" stroke-miterlimit="10" stroke-width="2"/>
    <circle cx="153.68" cy="368.2" r="3.28" fill="none" stroke="#000" stroke-miterlimit="10" stroke-width="2"/>
    <path d="M247.9,142.63c-1.15.27-2.22-.81-2.22-2.24V128.64c0-2.27,1.22-4.11,2.72-4.11h31.29c1.5,0,2.71,1.84,2.71,4.11v11.74c0,1.44-1.07,2.52-2.22,2.24l-4.28-1a2.22,2.22,0,0,1-1.5-2.24v-5.71a1.71,1.71,0,0,0-1.52-1.86H255.3a1.72,1.72,0,0,0-1.53,1.86v5.71a2.2,2.2,0,0,1-1.5,2.23Z" fill="#636363" stroke="#000" stroke-miterlimit="10" stroke-width="2"/>
    <circle cx="263.53" cy="235.05" r="94.6" fill="#636363" stroke="#000" stroke-miterlimit="10" stroke-width="2"/>
    <rect x="259.84" y="110.16" width="8.43" height="25.17" rx="2.36" fill="#636363" stroke="#000" stroke-miterlimit="10" stroke-width="2"/>
    <circle cx="253.17" cy="118.03" r="3.28" fill="none" stroke="#000" stroke-miterlimit="10" stroke-width="2"/>
    <circle cx="275.47" cy="118.97" r="3.28" fill="none" stroke="#000" stroke-miterlimit="10" stroke-width="2"/>
    <circle cx="287.47" cy="126.41" r="3.28" fill="none" stroke="#000" stroke-miterlimit="10" stroke-width="2"/>
    <circle cx="243.55" cy="123.69" r="3.28" fill="none" stroke="#000" stroke-miterlimit="10" stroke-width="2"/>
    <circle cx="236.91" cy="134.41" r="3.28" fill="none" stroke="#000" stroke-miterlimit="10" stroke-width="2"/>
    <line x1="243.68" y1="123.26" x2="252.15" y2="118.71" fill="none" stroke="#000" stroke-linecap="round" stroke-miterlimit="10" stroke-width="2"/>
    <line x1="233.21" y1="142.24" x2="236.19" y2="135.86" fill="none" stroke="#000" stroke-linecap="round" stroke-miterlimit="10" stroke-width="2"/>
    <line x1="238.23" y1="132.63" x2="242.06" y2="125.65" fill="none" stroke="#000" stroke-linecap="round" stroke-miterlimit="10" stroke-width="2"/>
    <g>
      <path d="M327.19,299.39s69.36-106.85-24.41-102.51a23.41,23.41,0,0,1,2.16,1.07c20.58,11.26,29,43.75,18.32,69.49l10.71,4Z" fill="#ff142a" stroke="#000" stroke-linecap="round" stroke-linejoin="round" stroke-width="2"/>
      <path d="M315.85,213.35a.27.27,0,0,1,.5-.13c6,8.9,9.2,16.49,7.16,38.94s-19.17,43-37.41,50.51c0,0-9.82,3.83-16.25.23a2.31,2.31,0,0,1,.2-4.14c8.31-3.56,29.58-12.91,31.29-24.39A3.3,3.3,0,0,1,302,273a39.09,39.09,0,0,0,11.83-26Z" fill="#ff142a" stroke="#000" stroke-linecap="round" stroke-linejoin="round" stroke-width="2"/>
      <path d="M323.94,270.34c-1.82,3.54-13.48,25.45-24.22,29.25a2.73,2.73,0,0,0-1.8,2.44l-.3,5.08a4.55,4.55,0,0,1-3,4l-12.27,4.46a.33.33,0,0,0,0,.64,47.78,47.78,0,0,0,7.88.94c15.32.57,28.56-13.8,31.41-33.66.48-3.37,1.24-7.66,2.39-13.12A.07.07,0,0,0,323.94,270.34Z" fill="#ff142a" stroke="#000" stroke-linecap="round" stroke-linejoin="round" stroke-width="2"/>
      <path d="M286.66,272a2.16,2.16,0,0,0,2.26,2.95c7.27-.94,23.48-8.54,23.54-57.69,0-6.05-2.11-12.07-7.16-14.84-5.61-3.07-12.11-7.78-27.78,2a1.19,1.19,0,0,0,.11,2.1C284.62,209.77,305.77,224.11,286.66,272Z" fill="#ff142a" stroke="#000" stroke-linecap="round" stroke-linejoin="round" stroke-width="2"/>
      <path d="M346.72,201.57c-3.14-6.9-11.7-18.61-34.4-22.64A2.87,2.87,0,0,1,310,176c.11-3.89-1.27-12-12-21.77a2,2,0,0,0-3.29.83c-1.59,4.68-5.12,13.89-9.73,18.92a7.37,7.37,0,0,1-6.74,2.3c-6.79-1.21-24.74-2.23-42.34,15.37a5.17,5.17,0,0,1-4.52,1.47c-3.18-.54-9.3-.59-17.45,4l-15,1.43a2.53,2.53,0,0,0-2,3.64l7.65,15.29a3.7,3.7,0,0,0,5,1.64c1.79-.92,4.18-2.12,6.93-3.42L218,215l.24-.11c10.44-4.86,24.64-10.5,29.47-7.82a6.46,6.46,0,0,0,.87.44l12.07,4.58a3.35,3.35,0,0,0,3.81-1l5.43-6.74a17.48,17.48,0,0,1,6.85-5.18A74.11,74.11,0,0,1,344,204,1.91,1.91,0,0,0,346.72,201.57Zm-54.36-19.08-1.64,1.94a2,2,0,0,1-1.24.68l-28.73,4a2,2,0,0,0-1.39.88l-3,4.69a2,2,0,0,1-1.93.89l-7.75-1.06a2,2,0,0,1-1.11-3.39l6.15-6,38.88-5.89A2,2,0,0,1,292.36,182.49Z" fill="#ff142a" stroke="#000" stroke-linecap="round" stroke-linejoin="round" stroke-width="2"/>
      <path d="M275.48,210.46c5.11,4.31,16.53,15.9,13.7,31.39a2.78,2.78,0,0,1-3.3,2.24c-5.53-1.17-20-1.64-43.32,15.37a3.34,3.34,0,0,1-2.95.51l-5.09-1.54a.7.7,0,0,1-.11-1.3c6.4-3.11,29.49-14.7,29.27-20.42-.2-5.2,5.71-19.48,8.28-25.43A2.25,2.25,0,0,1,275.48,210.46Z" fill="#ff142a" stroke="#000" stroke-linecap="round" stroke-linejoin="round" stroke-width="2"/>
      <path d="M221.55,230.07c-1.3-.69-6.05-3.06-7.62-13l-4.55,2.32s5.08,14.17,12.13,11.38A.37.37,0,0,0,221.55,230.07Z" fill="#39ff14" stroke="#000" stroke-miterlimit="10" stroke-width="2"/>
      <path d="M220.9,220.79l-1.52-5.88a.41.41,0,0,0-.57-.27l-2.2,1a.42.42,0,0,0-.16.64l3.72,4.89A.41.41,0,0,0,220.9,220.79Z" fill="#39ff14" stroke="#000" stroke-miterlimit="10" stroke-width="2"/>
      <path d="M226,218.81l-1.52-5.88a.42.42,0,0,0-.58-.27l-2.2,1a.42.42,0,0,0-.16.63l3.73,4.89A.42.42,0,0,0,226,218.81Z" fill="#39ff14" stroke="#000" stroke-miterlimit="10" stroke-width="2"/>
      <path d="M238.68,253.52c-1.92-.81-5.8-2.51-9.76-4.59a.3.3,0,0,0-.36.46l6.29,6.93a.67.67,0,0,0,.83.13l3.06-1.73A.67.67,0,0,0,238.68,253.52Z" fill="#39ff14" stroke="#000" stroke-miterlimit="10" stroke-width="2"/>
      <path d="M246.14,249.36c-2-.68-5.95-2.11-10-3.91a.29.29,0,0,0-.33.48l6.75,6.49a.69.69,0,0,0,.84.07l2.93-1.94A.66.66,0,0,0,246.14,249.36Z" fill="#39ff14" stroke="#000" stroke-miterlimit="10" stroke-width="2"/>
      <path d="M253.86,245c-2-.72-6.81-1.52-10.88-3.39a.3.3,0,0,0-.34.48l6.65,6.6a.68.68,0,0,0,.83.09l3.86-2.59A.67.67,0,0,0,253.86,245Z" fill="#39ff14" stroke="#000" stroke-miterlimit="10" stroke-width="2"/>
    </g>
    <path d="M193,274.4s10.21,28.09,49,41.37" fill="none" stroke="#fff" stroke-linecap="round" stroke-linejoin="round" stroke-width="4"/>
  </g>
</svg>
