<svg id="Слой_1" data-name="Слой 1" xmlns="http://www.w3.org/2000/svg" viewBox="0 0 500 500">
  <g>
    <path d="M461.42,116.53a78.64,78.64,0,0,0-111.21,0l-54.83,54.83a42.86,42.86,0,0,1-34.11,12.42,3.26,3.26,0,0,0-2.54,5.62l14.87,13.92a11.27,11.27,0,0,1-.31,16.73l-16.65,19.66a11.26,11.26,0,0,0-.21,16.83l18,21.47a11.25,11.25,0,0,1,1.43,15l-23.14,31.08a10.85,10.85,0,0,0-1.35,2.38A11.26,11.26,0,0,0,253,338l15.39,18.88A11.28,11.28,0,0,1,269.78,369L257,394.74a8.13,8.13,0,0,0,7.12,11.75A42.46,42.46,0,0,0,295.14,394L376.21,313l85.21-85.21A78.62,78.62,0,0,0,461.42,116.53Z" fill="#ff142a" stroke="#000" stroke-linecap="round" stroke-linejoin="round" stroke-width="2"/>
    <path d="M222.73,324.14l23.14-31.08a11.25,11.25,0,0,0-1.43-15l-18-21.47a11.26,11.26,0,0,1,.21-16.83l16.65-19.66a11.27,11.27,0,0,0,.31-16.73L231.29,191.8,213.22,178a43.43,43.43,0,0,1-8.6-6.66l-54.83-54.84A78.64,78.64,0,0,0,38.57,227.75L123.79,313,204.86,394A42.63,42.63,0,0,0,213,400.4l.09.05A9.14,9.14,0,0,0,226,396.7L239.78,369a11.28,11.28,0,0,0-1.35-12.14L223,338a11.26,11.26,0,0,1-1.66-11.47A10.85,10.85,0,0,1,222.73,324.14Z" fill="#ff142a" stroke="#000" stroke-linecap="round" stroke-linejoin="round" stroke-width="2"/>
  </g>
</svg>
