<svg id="Слой_1" data-name="Слой 1" xmlns="http://www.w3.org/2000/svg" viewBox="0 0 500 500">
  <g>
    <path d="M226.92,385.24a9.81,9.81,0,0,0,1.25,1.07A8,8,0,0,1,226.92,385.24Z" fill="#8e8e8e" stroke="#000" stroke-miterlimit="10" stroke-width="2"/>
    <path d="M248.11,379c1.27,0,2.53,0,3.79,0a9.79,9.79,0,0,0-1.89.23,8.73,8.73,0,0,0-2.54-.21,4.75,4.75,0,0,1,.54,0Z" fill="#8e8e8e" stroke="#000" stroke-miterlimit="10" stroke-width="2"/>
    <path d="M252,379a5.12,5.12,0,0,1,.56,0,4.61,4.61,0,0,0-.65,0Z" fill="#8e8e8e" stroke="#000" stroke-miterlimit="10" stroke-width="2"/>
    <path d="M273.09,385.24a11,11,0,0,0,1.08-1.27A10.07,10.07,0,0,1,273.09,385.24Z" fill="#8e8e8e" stroke="#000" stroke-miterlimit="10" stroke-width="2"/>
    <path d="M384.53,301.78c-11.29-12-10.67-32.36-7.85-48.17a135.08,135.08,0,1,0-253.36,0c2.82,15.81,3.44,36.19-7.85,48.17a36.39,36.39,0,0,0,27.39,66.57c5.83-.74,37.94-2.7,35,44.93a11.35,11.35,0,0,0,10.55,12.09c16.56,1.1,46.47,3,61.6,3.16,7.58-.1,18.83-.62,30.28-1.24s23.05-1.37,31.34-1.92a11.34,11.34,0,0,0,10.55-12.09c-3-47.63,29.16-45.67,35-44.93a36.38,36.38,0,0,0,27.39-66.57ZM148.27,275.24c0-13.39,8-20.55,14.76-24.21a29.92,29.92,0,0,1,13.9-3.54l36.7-.47a29.64,29.64,0,0,1,16.81,4.77c6.92,4.61,13.79,13.51,11.95,30.54-3.51,32.45-34.8,35.08-48.23,35.37S148.27,314.63,148.27,275.24ZM276,378.41v.08a1.48,1.48,0,0,1,0,.21,3.83,3.83,0,0,1,0,.47s0,.07,0,.11a2.32,2.32,0,0,1-.06.38,7.73,7.73,0,0,1-.2,1c0,.14-.07.28-.11.42a.07.07,0,0,0,0,.06,7.15,7.15,0,0,1-.29.77,6.5,6.5,0,0,1-.25.61c-.15.29-.31.58-.48.85s-.27.42-.4.62a11,11,0,0,1-1.08,1.27,5.4,5.4,0,0,1-.61.56,8.27,8.27,0,0,1-.66.51l0,0-.21.14c-.19.13-.37.25-.57.36s-.36.21-.55.3l0,0h0l-.09,0a3.54,3.54,0,0,1-.34.16c-.12.06-.24.1-.37.15s-.5.19-.77.27a4.07,4.07,0,0,1-.5.13l-.6.13-.13,0-.47.07h0l-.27,0-.29,0H266c-.25,0-.51,0-.76,0l-.21,0-.37-.05h-.21l-.12,0c-.19,0-.4-.07-.59-.12l-.29-.07-.27-.08h0l-.23-.07h0l-.43-.16a.69.69,0,0,1-.23-.09,3.42,3.42,0,0,1-.4-.17l0,0a4.09,4.09,0,0,1-.42-.2l-.12-.07h0a3.47,3.47,0,0,1-.46-.27l-.05,0a.76.76,0,0,1-.19-.12,4.4,4.4,0,0,1-.45-.3l-.17-.13-.12-.09a5.07,5.07,0,0,1-.44-.37l-.36-.33-.27-.27a3.65,3.65,0,0,1-.27-.3,2.51,2.51,0,0,1-.26-.31l-.25-.32a2.52,2.52,0,0,1-.24-.33,6.92,6.92,0,0,1-.54-.9.94.94,0,0,1-.13-.24l-.12-.22s0,0,0-.05-.11-.23-.16-.35A5.08,5.08,0,0,0,252,379h-.09c-1.26,0-2.52,0-3.79,0H248a4.75,4.75,0,0,0-.54,0h-.13a5.16,5.16,0,0,0-4,3.07s0,0,0,0-.1.22-.14.32-.11.21-.15.31-.23.43-.36.64l-.29.46c-.08.12-.18.25-.27.37s0,0,0,0a.18.18,0,0,0,0,.07l-.07.07-.25.32-.38.4c-.12.13-.25.26-.37.37a3.88,3.88,0,0,1-.38.34c-.13.12-.27.23-.41.34s-.34.26-.53.38l-.36.23-.37.22-.35.18-.23.11h0a4.41,4.41,0,0,1-.54.24l-.32.12-.33.11-.16.05-.32.09-.29.07c-.21.05-.4.09-.6.12l-.11,0h-.13l-.45.06-.21,0c-.27,0-.52,0-.79,0h-.09l-.49,0-.27,0-.28,0h0l-.48-.07L232,388l-.28-.06-.14,0-.54-.14a6.61,6.61,0,0,1-.67-.24l-.36-.15-.35-.16-.08,0h0a7.62,7.62,0,0,1-.69-.38c-.16-.1-.33-.2-.47-.3l-.21-.14,0,0a9.81,9.81,0,0,1-1.25-1.07c-.2-.2-.39-.4-.58-.61a8.16,8.16,0,0,1-.5-.66,6,6,0,0,1-.41-.62c-.17-.27-.32-.56-.48-.85a6.5,6.5,0,0,1-.25-.61,5.46,5.46,0,0,1-.28-.77,6.13,6.13,0,0,1-.24-1,4,4,0,0,1-.09-.5,1.21,1.21,0,0,1-.06-.38s0-.09,0-.13a4.38,4.38,0,0,1,0-.51,10.1,10.1,0,0,1,0-1.56,9.93,9.93,0,0,1,.26-1.48,3.79,3.79,0,0,1,.14-.48,2.47,2.47,0,0,1,.15-.46c.06-.16.12-.31.17-.46s.15-.31.21-.46a10.5,10.5,0,0,1,1-1.65l.32-.39a8.83,8.83,0,0,1,.65-.71l.47-.44a5.54,5.54,0,0,1,.45-.37,5.46,5.46,0,0,1,.48-.36l.5-.32h0a2.12,2.12,0,0,1,.36-.21l0,0c.29-.16.58-.3.87-.43l.23-.08a4.3,4.3,0,0,1,.54-.2l.65-.19a7.73,7.73,0,0,1,1-.2c.23,0,.48-.07.72-.09h.05c.25,0,.5,0,.77,0h0l.57-.28c.18-.09.39-.2.58-.32s.39-.23.58-.36h0l.56-.41c.17-.13.32-.27.5-.42s.44-.39.65-.61.33-.35.49-.54a.17.17,0,0,1,.07-.08c.15-.18.3-.38.44-.58l0,0h0l0,0c.11-.15.21-.31.31-.46a8.61,8.61,0,0,0,1-4.92,2,2,0,0,1,0-.35c0-.12,0-.23,0-.35a10.08,10.08,0,0,1,17.21-7.13,8.76,8.76,0,0,1,1.32,1.66l.23.33.18.34a4.5,4.5,0,0,1,.23.43c.05.1.1.2.14.3a10,10,0,0,1,.36,1,5.76,5.76,0,0,1,.18.59,7.88,7.88,0,0,1,.2,1c0,.25.06.5.08.76s0,.51,0,.77,0,.47,0,.7a8.24,8.24,0,0,0,1.38,5.39l0,0h0l0,0c.14.2.3.4.45.58l.07.08a6.28,6.28,0,0,0,.49.54,7.36,7.36,0,0,0,.65.61,6.12,6.12,0,0,0,.48.41c.23.18.48.35.71.5l0,0,.42.26.58.32.58.28h0q.41,0,.78,0l.59.07h.17a8.26,8.26,0,0,1,1,.2l.75.22h0l.18.06c.22.08.42.17.63.26l.36.17a2.91,2.91,0,0,1,.35.18l0,0c.24.12.46.26.69.4l.12.08q.29.19.57.42c.2.15.39.32.58.48l0,0a7.93,7.93,0,0,1,.58.58l.06.06c.15.18.32.37.47.56s.29.38.43.58l.36.58.14.25s0,.06,0,.09,0,0,0,0l.27.56a7.28,7.28,0,0,1,.31.77c.06.2.14.4.19.61a1.55,1.55,0,0,1,.08.36,1.87,1.87,0,0,1,.08.32,1.37,1.37,0,0,1,.07.34l0,.18c0,.13,0,.27.05.4a1.23,1.23,0,0,1,0,.27,3.13,3.13,0,0,1,0,.44v.72Zm29.81-60.71c-13.43-.29-44.71-2.92-48.23-35.37-1.83-17,5-25.93,12-30.54A29.61,29.61,0,0,1,286.38,247l36.69.47A29.92,29.92,0,0,1,337,251c6.76,3.66,14.77,10.82,14.77,24.21C351.74,314.63,319.3,318,305.84,317.7Z" fill="#8e8e8e" stroke="#000" stroke-miterlimit="10" stroke-width="2"/>
  </g>
</svg>
