<svg id="Слой_1" data-name="Слой 1" xmlns="http://www.w3.org/2000/svg" viewBox="0 0 500 500">
  <path d="M192,232q-3.57,10.2-12.16,10.2a18.82,18.82,0,0,1-7-1.43L163.69,237q-9.48-4.29-9.48-12a18.82,18.82,0,0,1,1.79-7.34q36.13-77.26,109.65-77.27a83.81,83.81,0,0,1,29.24,4.92,69.81,69.81,0,0,1,23,13.68A62.49,62.49,0,0,1,333,180a64.32,64.32,0,0,1,5.46,26.65,65.63,65.63,0,0,1-4.83,25,76.54,76.54,0,0,1-13.86,22.09,101.13,101.13,0,0,1-22.18,18.43,138.53,138.53,0,0,1-29.79,13.77,20.61,20.61,0,0,1-6.61,1.07q-7.33,0-13.24-5.9l-2.15-2.15c-3.22-3-4.83-6-4.83-9.12a9.33,9.33,0,0,1,2.51-6.26,19.21,19.21,0,0,1,7.51-4.83,163.51,163.51,0,0,0,24.24-11.27A80.54,80.54,0,0,0,291,235.79a36.93,36.93,0,0,0,8.58-12.34,36.56,36.56,0,0,0,2.6-13.78,31.68,31.68,0,0,0-3.31-14.31,37.52,37.52,0,0,0-8.94-11.53,41.61,41.61,0,0,0-13.24-7.7,47.11,47.11,0,0,0-16.19-2.77q-22.89,0-39.71,14.31T192,232Zm61.89,129.32a29,29,0,0,1-9.75-1.61,26.1,26.1,0,0,1-8-4.38,19.68,19.68,0,0,1-5.28-6.53,17.75,17.75,0,0,1-1.88-8.05,14.66,14.66,0,0,1,6-12.16q6-4.65,16-4.65a24.12,24.12,0,0,1,8.94,1.7,26.2,26.2,0,0,1,7.61,4.56,22.5,22.5,0,0,1,5.27,6.62,16.76,16.76,0,0,1,2,7.87q0,7.88-5.63,12.25T253.84,361.35Z"/>
</svg>
