<svg id="Слой_1" data-name="Слой 1" xmlns="http://www.w3.org/2000/svg" viewBox="0 0 500 367.23">
  <g>
    <g>
      <path d="M207,192.94s-.31,1.34-.91,3.67-1.39,5.32-2.45,9c-.31,1.05-.63,2.15-1,3.29-1.6,5.35-3.62,11.61-6,18.06-.76,2-1.55,4.1-2.38,6.15" fill="none" stroke="#000" stroke-miterlimit="10" stroke-width="2"/>
      <path d="M92.16,236.86c-4-9.62-7.44-20-10.28-29.47-.88-2.89-1.69-5.68-2.43-8.34-1.39-4.93-2.56-9.37-3.48-13-.63-2.51-1.15-4.64-1.54-6.28-.58-2.42-.88-3.8-.88-3.8" fill="none" stroke="#000" stroke-miterlimit="10" stroke-width="2"/>
      <path d="M92.89,210.28l16.37,16.05a.6.6,0,0,0,.54.15l18.91-4.41a.58.58,0,0,0,.06-1.12L93.48,209.31A.58.58,0,0,0,92.89,210.28Z" fill="#ff142a" stroke="#000" stroke-miterlimit="10" stroke-width="2"/>
      <path d="M190.67,210.28,174.3,226.33a.6.6,0,0,1-.54.15l-18.92-4.41a.58.58,0,0,1-.05-1.12l35.29-11.64A.58.58,0,0,1,190.67,210.28Z" fill="#ff142a" stroke="#000" stroke-miterlimit="10" stroke-width="2"/>
      <path d="M179.72,195.44l-2.56,33.89L194,194.7a.09.09,0,0,1,.17.05l-.87,28.12,9.16-28.58a.09.09,0,0,1,.18,0V236l10.08-42.5a.09.09,0,0,1,.18,0v35l6.56-36.65" fill="none" stroke="#000" stroke-linecap="round" stroke-linejoin="round" stroke-width="2"/>
      <path d="M135.63,195.44l-6.47,34.4,17.05-34.1a.09.09,0,0,1,.17,0l2.19,34.76,5.78-34.85a.09.09,0,0,1,.17,0l10.9,18.19V195.5a.09.09,0,0,1,.14-.08l13.37,10.45" fill="none" stroke="#000" stroke-linecap="round" stroke-linejoin="round" stroke-width="2"/>
      <path d="M70.42,175.42,59.29,223.55l19.88-44.71a.09.09,0,0,1,.17,0l.18,33.91,13.22-30.26a.09.09,0,0,1,.17,0l-2,32.55,11.59-30.7a.1.1,0,0,1,.18,0l4.61,16.77L116.55,187a.09.09,0,0,1,.16,0l6.7,21.6,5.05-19.24a.09.09,0,0,1,.17,0l4.63,19.74" fill="none" stroke="#000" stroke-linecap="round" stroke-linejoin="round" stroke-width="2"/>
      <path d="M244.45,189.37c-4.18,20.12-28.65,22.08-109.77,5.24s-102.79-28.39-98.61-48.5,30.63-31.64,111.75-14.79S248.63,169.26,244.45,189.37Z" fill="#ff142a" stroke="#000" stroke-miterlimit="10" stroke-width="2"/>
      <path d="M231.86,183.3c-3.43,16.54-25,17.84-96.85,2.93S43.89,161.52,47.32,145,74,119.28,145.81,134.2,235.3,166.76,231.86,183.3Z" fill="none" stroke="#000" stroke-miterlimit="10" stroke-width="2"/>
      <path d="M206.77,172.43l-19.92-111c-3.71-30.78-37-51.06-67-40.07-27,9.9-43.42,36.15-48.9,46.28a1.24,1.24,0,0,0,1.74,1.65c12.49-7.73,51.9-30,59.57-9,9.14,25.09-58.64,87.79-58.64,87.79" fill="#ff142a" stroke="#000" stroke-linecap="round" stroke-linejoin="round" stroke-width="2"/>
      <path d="M97,159.73s39.41,26.06,87,13.83" fill="none" stroke="#000" stroke-linecap="round" stroke-linejoin="round" stroke-width="2"/>
      <path d="M180.37,91.28s-1.63,13.79-35.14,5.63" fill="none" stroke="#000" stroke-linecap="round" stroke-miterlimit="10" stroke-width="2"/>
      <path d="M170.59,47.74S172,59,152.91,60.51" fill="none" stroke="#000" stroke-linecap="round" stroke-miterlimit="10" stroke-width="2"/>
      <path d="M190.85,132.14s-2,18.73-60.79,5.5" fill="none" stroke="#000" stroke-linecap="round" stroke-miterlimit="10" stroke-width="2"/>
      <line x1="71.28" y1="69.22" x2="69.68" y2="80.42" fill="none" stroke="#000" stroke-linecap="round" stroke-linejoin="round" stroke-width="2"/>
      <rect x="65.85" y="80.42" width="7.15" height="7.15" rx="1.79" fill="#39ff14" stroke="#000" stroke-miterlimit="10" stroke-width="2"/>
    </g>
    <g>
      <path d="M263,238.61c-.21,4.87-9.54,6.76-13.78,2.8-15.56-14.56-17.12-15.51-45.25-10.88-27.56,4.53-29.56,27.87-86.41,9.49-15.4-5-31-2-50.43-4.05-38.83-4-64.07,2.54-53.1,74.5,3.4,22.33,19.11,35.61,88.85,41.19,5.68.46,39.12-6.06,42.47-8,11.49-6.51,23.11-3.74,34.24.24,27.87,9.95,75.53,21.34,98.87-5.85C287.19,327.9,311.1,329.8,326,336c22.13,9.23,52.42,17.49,64.16.27,4.6-6.73,16.38-9.85,26.69-7.14C442.75,336,483.29,340.07,488,301c5.22-43-29.81-58.6-60.72-55.14-15.15,1.7-30.1-3.23-37.7-12.15-8.42-9.88-24.76-21.09-56.28-29.24-26-6.74-48.5-4.6-60.54,9.57a27.82,27.82,0,0,0-5.52,10.22Z" fill="none" stroke="#000" stroke-miterlimit="10" stroke-width="2"/>
      <text transform="translate(27.06 305.73)" font-size="90" fill="#ff142a" stroke="#000" stroke-miterlimit="10" stroke-width="2" font-family="GochiHand-Regular, Gochi Hand">MagicShake</text>
    </g>
    <g>
      <path d="M352.57,162.35l-.87-7.51a2.08,2.08,0,0,0-1.09-1.59l-6.68-3.54A2.07,2.07,0,0,1,344,146l6.87-3.15a2.08,2.08,0,0,0,1.18-1.53l1.3-7.45a2.08,2.08,0,0,1,3.57-1.05l5.12,5.56a2,2,0,0,0,1.82.65l7.48-1.06a2.07,2.07,0,0,1,2.1,3.07l-3.7,6.59a2.06,2.06,0,0,0-.06,1.93l3.33,6.78a2.07,2.07,0,0,1-2.27,2.95l-7.41-1.49a2.07,2.07,0,0,0-1.85.55l-5.43,5.26A2.08,2.08,0,0,1,352.57,162.35Z" fill="#39ff14" stroke="#000" stroke-miterlimit="10" stroke-width="2"/>
      <path d="M298,105.3l2.64-7.09a2.07,2.07,0,0,0-.25-1.91l-4.34-6.19a2.08,2.08,0,0,1,1.79-3.27l7.55.32a2.07,2.07,0,0,0,1.75-.82l4.54-6a2.08,2.08,0,0,1,3.66.69l2,7.28a2.07,2.07,0,0,0,1.32,1.41l7.15,2.45a2.08,2.08,0,0,1,.48,3.7L320,100a2.06,2.06,0,0,0-.93,1.69l-.13,7.56a2.07,2.07,0,0,1-3.36,1.59l-5.92-4.7a2.1,2.1,0,0,0-1.9-.36L300.55,108A2.08,2.08,0,0,1,298,105.3Z" fill="#39ff14" stroke="#000" stroke-miterlimit="10" stroke-width="2"/>
      <path d="M259.19,80.28l-7.49,1a2.07,2.07,0,0,0-1.58,1.11l-3.44,6.73A2.08,2.08,0,0,1,243,89l-3.24-6.82a2.07,2.07,0,0,0-1.55-1.16l-7.46-1.2a2.07,2.07,0,0,1-1.1-3.55l5.49-5.2a2,2,0,0,0,.62-1.83l-1.17-7.46a2.08,2.08,0,0,1,3.05-2.15l6.63,3.62a2.11,2.11,0,0,0,1.94,0l6.74-3.42a2.08,2.08,0,0,1,3,2.24l-1.39,7.43a2.06,2.06,0,0,0,.57,1.84l5.34,5.36A2.08,2.08,0,0,1,259.19,80.28Z" fill="#39ff14" stroke="#000" stroke-miterlimit="10" stroke-width="2"/>
      <path d="M441.29,193.27l-6.65,3.6a2.08,2.08,0,0,0-1.07,1.61l-.8,7.51a2.08,2.08,0,0,1-3.5,1.29l-5.47-5.21a2.09,2.09,0,0,0-1.86-.53l-7.4,1.56a2.07,2.07,0,0,1-2.3-2.92l3.26-6.82a2.06,2.06,0,0,0-.07-1.93l-3.77-6.55a2.08,2.08,0,0,1,2.07-3.1l7.49,1a2.05,2.05,0,0,0,1.81-.67l5.07-5.61a2.07,2.07,0,0,1,3.58,1l1.37,7.44a2.09,2.09,0,0,0,1.2,1.52l6.9,3.08A2.08,2.08,0,0,1,441.29,193.27Z" fill="#39ff14" stroke="#000" stroke-miterlimit="10" stroke-width="2"/>
      <path d="M378.79,60.16l-7.26-2.11a2.05,2.05,0,0,0-1.89.38l-5.86,4.78a2.08,2.08,0,0,1-3.39-1.55l-.22-7.56a2.09,2.09,0,0,0-.95-1.68l-6.36-4.09a2.08,2.08,0,0,1,.43-3.7l7.11-2.55a2.07,2.07,0,0,0,1.31-1.42l1.93-7.31a2.08,2.08,0,0,1,3.65-.74l4.62,6a2.08,2.08,0,0,0,1.76.8l7.55-.42a2.07,2.07,0,0,1,1.83,3.24l-4.26,6.25a2.06,2.06,0,0,0-.22,1.91l2.73,7.05A2.07,2.07,0,0,1,378.79,60.16Z" fill="#39ff14" stroke="#000" stroke-miterlimit="10" stroke-width="2"/>
      <path d="M441.08,107.81l-7.26-2.12a2.06,2.06,0,0,0-1.89.39l-5.86,4.77a2.07,2.07,0,0,1-3.38-1.54l-.23-7.56a2.09,2.09,0,0,0-.95-1.68L415.16,96a2.07,2.07,0,0,1,.42-3.69l7.12-2.55A2.09,2.09,0,0,0,424,88.3L425.93,81a2.08,2.08,0,0,1,3.65-.73l4.63,6A2.08,2.08,0,0,0,436,87l7.55-.42a2.07,2.07,0,0,1,1.83,3.24l-4.26,6.24a2.11,2.11,0,0,0-.22,1.92l2.74,7A2.08,2.08,0,0,1,441.08,107.81Z" fill="#39ff14" stroke="#000" stroke-miterlimit="10" stroke-width="2"/>
      <path d="M286.79,183.09l-4.12-6.33a2.09,2.09,0,0,0-1.68-.95l-7.56-.19a2.08,2.08,0,0,1-1.56-3.38l4.76-5.88a2,2,0,0,0,.37-1.89l-2.14-7.25a2.08,2.08,0,0,1,2.73-2.53l7.06,2.71a2.07,2.07,0,0,0,1.91-.23l6.23-4.28A2.07,2.07,0,0,1,296,154.7l-.39,7.55a2.08,2.08,0,0,0,.81,1.76l6,4.6a2.08,2.08,0,0,1-.73,3.65l-7.3,2a2.09,2.09,0,0,0-1.42,1.31l-2.52,7.13A2.08,2.08,0,0,1,286.79,183.09Z" fill="#39ff14" stroke="#000" stroke-miterlimit="10" stroke-width="2"/>
    </g>
  </g>
</svg>
