<svg id="Слой_1" data-name="Слой 1" xmlns="http://www.w3.org/2000/svg" viewBox="0 0 500 367.23">
  <g>
    <g>
      <path d="M207,192.94s-.31,1.34-.91,3.67-1.39,5.32-2.45,9c-.31,1.05-.63,2.15-1,3.29-1.6,5.35-3.62,11.61-6,18.06-.76,2-1.55,4.1-2.38,6.15" fill="none" stroke="#000" stroke-miterlimit="10" stroke-width="2"/>
      <path d="M92.16,236.86c-4-9.62-7.44-20-10.28-29.47-.88-2.89-1.69-5.68-2.43-8.34-1.39-4.93-2.56-9.37-3.48-13-.63-2.51-1.15-4.64-1.54-6.28-.58-2.42-.88-3.8-.88-3.8" fill="none" stroke="#000" stroke-miterlimit="10" stroke-width="2"/>
      <path d="M92.89,210.28l16.37,16.05a.6.6,0,0,0,.54.15l18.91-4.41a.58.58,0,0,0,.06-1.12L93.48,209.31A.58.58,0,0,0,92.89,210.28Z" fill="#ff142a" stroke="#000" stroke-miterlimit="10" stroke-width="2"/>
      <path d="M190.67,210.28,174.3,226.33a.6.6,0,0,1-.54.15l-18.92-4.41a.58.58,0,0,1-.05-1.12l35.29-11.64A.58.58,0,0,1,190.67,210.28Z" fill="#ff142a" stroke="#000" stroke-miterlimit="10" stroke-width="2"/>
      <path d="M179.72,195.44l-2.56,33.89L194,194.7a.09.09,0,0,1,.17.05l-.87,28.12,9.16-28.58a.09.09,0,0,1,.18,0V236l10.08-42.5a.09.09,0,0,1,.18,0v35l6.56-36.65" fill="none" stroke="#000" stroke-linecap="round" stroke-linejoin="round" stroke-width="2"/>
      <path d="M135.63,195.44l-6.47,34.4,17.05-34.1a.09.09,0,0,1,.17,0l2.19,34.76,5.78-34.85a.09.09,0,0,1,.17,0l10.9,18.19V195.5a.09.09,0,0,1,.14-.08l13.37,10.45" fill="none" stroke="#000" stroke-linecap="round" stroke-linejoin="round" stroke-width="2"/>
      <path d="M70.42,175.42,59.29,223.55l19.88-44.71a.09.09,0,0,1,.17,0l.18,33.91,13.22-30.26a.09.09,0,0,1,.17,0l-2,32.55,11.59-30.7a.1.1,0,0,1,.18,0l4.61,16.77L116.55,187a.09.09,0,0,1,.16,0l6.7,21.6,5.05-19.24a.09.09,0,0,1,.17,0l4.63,19.74" fill="none" stroke="#000" stroke-linecap="round" stroke-linejoin="round" stroke-width="2"/>
      <path d="M244.45,189.37c-4.18,20.12-28.65,22.08-109.77,5.24s-102.79-28.39-98.61-48.5,30.63-31.64,111.75-14.79S248.63,169.26,244.45,189.37Z" fill="#ff142a" stroke="#000" stroke-miterlimit="10" stroke-width="2"/>
      <path d="M231.86,183.3c-3.43,16.54-25,17.84-96.85,2.93S43.89,161.52,47.32,145,74,119.28,145.81,134.2,235.3,166.76,231.86,183.3Z" fill="none" stroke="#000" stroke-miterlimit="10" stroke-width="2"/>
      <path d="M206.77,172.43l-19.92-111c-3.71-30.78-37-51.06-67-40.07-27,9.9-43.42,36.15-48.9,46.28a1.24,1.24,0,0,0,1.74,1.65c12.49-7.73,51.9-30,59.57-9,9.14,25.09-58.64,87.79-58.64,87.79" fill="#ff142a" stroke="#000" stroke-linecap="round" stroke-linejoin="round" stroke-width="2"/>
      <path d="M97,159.73s39.41,26.06,87,13.83" fill="none" stroke="#000" stroke-linecap="round" stroke-linejoin="round" stroke-width="2"/>
      <path d="M180.37,91.28s-1.63,13.79-35.14,5.63" fill="none" stroke="#000" stroke-linecap="round" stroke-miterlimit="10" stroke-width="2"/>
      <path d="M170.59,47.74S172,59,152.91,60.51" fill="none" stroke="#000" stroke-linecap="round" stroke-miterlimit="10" stroke-width="2"/>
      <path d="M190.85,132.14s-2,18.73-60.79,5.5" fill="none" stroke="#000" stroke-linecap="round" stroke-miterlimit="10" stroke-width="2"/>
      <line x1="71.28" y1="69.22" x2="69.68" y2="80.42" fill="none" stroke="#000" stroke-linecap="round" stroke-linejoin="round" stroke-width="2"/>
      <rect x="65.85" y="80.42" width="7.15" height="7.15" rx="1.79" fill="#39ff14" stroke="#000" stroke-miterlimit="10" stroke-width="2"/>
    </g>
    <g>
      <path d="M263,238.61c-.21,4.87-9.54,6.76-13.78,2.8-15.56-14.56-17.12-15.51-45.25-10.88-27.56,4.53-29.56,27.87-86.41,9.49-15.4-5-31-2-50.43-4.05-38.83-4-64.07,2.54-53.1,74.5,3.4,22.33,19.11,35.61,88.85,41.19,5.68.46,39.12-6.06,42.47-8,11.49-6.51,23.11-3.74,34.24.24,27.87,9.95,75.53,21.34,98.87-5.85C287.19,327.9,311.1,329.8,326,336c22.13,9.23,52.42,17.49,64.16.27,4.6-6.73,16.38-9.85,26.69-7.14C442.75,336,483.29,340.07,488,301c5.22-43-29.81-58.6-60.72-55.14-15.15,1.7-30.1-3.23-37.7-12.15-8.42-9.88-24.76-21.09-56.28-29.24-26-6.74-48.5-4.6-60.54,9.57a27.82,27.82,0,0,0-5.52,10.22Z" fill="none" stroke="#000" stroke-miterlimit="10" stroke-width="2"/>
      <g>
        <path d="M73.34,281.78c-.36,0-.66.28-.93.83a48.78,48.78,0,0,1-3.53,5.89A32.71,32.71,0,0,1,65.12,293a16.89,16.89,0,0,1-3.74,2.84,7.36,7.36,0,0,1-3.47,1,6.4,6.4,0,0,1-2.92-.68,10,10,0,0,1-2.9-2.57,43.89,43.89,0,0,1-3.56-5.23q-2-3.34-4.9-8.71a4.43,4.43,0,0,0-1-1.29,1.51,1.51,0,0,0-.9-.42c-.38,0-.73.4-1.06,1.21a16.59,16.59,0,0,0-.83,3.38c-.23,1.45-.42,3.2-.55,5.23s-.2,4.29-.2,6.75a40.36,40.36,0,0,0,.24,4.39,39.43,39.43,0,0,1,.25,4.53,2.67,2.67,0,0,1-.44,1.47A4.27,4.27,0,0,1,38,306.06a6.16,6.16,0,0,1-1.71.81,6.87,6.87,0,0,1-2.09.31c-1.46,0-2.52-.88-3.16-2.64s-1-4.57-1-8.44a100.13,100.13,0,0,1,.81-13.33,52.84,52.84,0,0,1,2.33-10.29,19.81,19.81,0,0,1,3.61-6.63,6.15,6.15,0,0,1,4.68-2.35q2.28,0,4.37,2.61a36.56,36.56,0,0,1,4.5,8.46A45.71,45.71,0,0,0,52.44,279a30.23,30.23,0,0,0,2.24,3.58A12.84,12.84,0,0,0,56.86,285a3.1,3.1,0,0,0,1.89.86,3.61,3.61,0,0,0,1.6-.37,5.71,5.71,0,0,0,1.76-1.63,28.74,28.74,0,0,0,2.33-3.67q1.34-2.41,3.32-6.46c.7-1.4,1.33-2.58,1.88-3.51a12.49,12.49,0,0,1,1.67-2.27,5.32,5.32,0,0,1,1.76-1.23,5.49,5.49,0,0,1,2.07-.37,3.69,3.69,0,0,1,2.68,1.45,18.52,18.52,0,0,1,2.57,3.87,50.38,50.38,0,0,1,2.44,5.62Q84,280.46,85.14,284t2.19,7.14c.72,2.41,1.42,4.71,2.09,6.87.18.65.3,1.1.37,1.34a3,3,0,0,1,.11.91,2.72,2.72,0,0,1-.46,1.47A5.07,5.07,0,0,1,88.23,303a6.56,6.56,0,0,1-1.69.93,5.42,5.42,0,0,1-1.87.35,5.11,5.11,0,0,1-1.91-.29,2.13,2.13,0,0,1-1.07-1,14.33,14.33,0,0,1-.75-2.11l-1.25-4.06c-.49-1.57-1-3.23-1.59-5s-1.14-3.38-1.71-4.86a32.28,32.28,0,0,0-1.65-3.69C74.22,282.27,73.75,281.78,73.34,281.78Z" fill="#ff142a" stroke="#000" stroke-miterlimit="10" stroke-width="2"/>
        <path d="M120.75,267.32a14.58,14.58,0,0,1,4.66.75,13.41,13.41,0,0,1,4,2.06,10.39,10.39,0,0,1,2.74,3.17,8.2,8.2,0,0,1,1,4.08,4,4,0,0,1-.42,1.78,5,5,0,0,1-1.12,1.5,5.69,5.69,0,0,1-1.61,1,4.79,4.79,0,0,1-1.86.37l-.16,0a.33.33,0,0,1-.15,0,.39.39,0,0,1-.18,0l.18,3.52c.12,4.18.71,7.25,1.78,9.18s2.47,2.9,4.2,2.9a6.8,6.8,0,0,0,1.64-.18,10.48,10.48,0,0,0,1.37-.41q.63-.24,1.2-.42a3.83,3.83,0,0,1,1.15-.18,2.35,2.35,0,0,1,1.78.88,3.12,3.12,0,0,1,.77,2.11,4,4,0,0,1-.95,2.46,9.79,9.79,0,0,1-2.48,2.22,14.75,14.75,0,0,1-3.47,1.61,12.88,12.88,0,0,1-3.92.61,7.94,7.94,0,0,1-6-2.83,17.2,17.2,0,0,1-3.69-8.33c-.17-.59-.41-.88-.7-.88a1.14,1.14,0,0,0-.92.53,31.76,31.76,0,0,1-9.28,8.24,19.8,19.8,0,0,1-9.71,2.74,11.93,11.93,0,0,1-4-.65,8.62,8.62,0,0,1-3.05-1.87,8.24,8.24,0,0,1-1.94-2.95,10.62,10.62,0,0,1-.68-3.89,17.19,17.19,0,0,1,1.34-6.37,32.36,32.36,0,0,1,3.63-6.59,44.14,44.14,0,0,1,5.29-6.2,45.56,45.56,0,0,1,6.33-5.18,33.24,33.24,0,0,1,6.75-3.56A18.15,18.15,0,0,1,120.75,267.32Zm-1.45,15.21a9.78,9.78,0,0,1,1.45-2.18,3.43,3.43,0,0,1,1.89-.9c.65-.09,1-.29,1-.62a1.38,1.38,0,0,0-.26-.74,14.53,14.53,0,0,0-1.76-2,3.49,3.49,0,0,0-2.46-.86,8.87,8.87,0,0,0-3.74,1,23.33,23.33,0,0,0-4.19,2.57,39.2,39.2,0,0,0-7.81,7.84,24.75,24.75,0,0,0-2.54,4.26,9.18,9.18,0,0,0-1,3.78,3.19,3.19,0,0,0,.81,2.33,2.94,2.94,0,0,0,2.22.84c2.4,0,5-1.28,7.87-3.82A44.71,44.71,0,0,0,119.3,282.53Z" fill="#ff142a" stroke="#000" stroke-miterlimit="10" stroke-width="2"/>
        <path d="M166.37,271.45a23.3,23.3,0,0,1,4,.33c1.26.22,2.4.46,3.43.7s1.9.49,2.63.71a6.35,6.35,0,0,0,1.58.33,1,1,0,0,0,.75-.42,10.39,10.39,0,0,1,.88-.9,5.72,5.72,0,0,1,1.41-.9,5.43,5.43,0,0,1,2.33-.42,3.77,3.77,0,0,1,2.63.86,2.71,2.71,0,0,1,1,2.13q0,16.08-1.1,27.31a80.25,80.25,0,0,1-3.56,18.26q-2.46,7-6.37,10.19a14.61,14.61,0,0,1-9.49,3.17,13.8,13.8,0,0,1-5.3-1.14,21.86,21.86,0,0,1-5-2.93,17.4,17.4,0,0,1-3.76-3.93,7.36,7.36,0,0,1-1.47-4.13,2.62,2.62,0,0,1,.7-1.54,11.13,11.13,0,0,1,1.72-1.71,11.42,11.42,0,0,1,2.11-1.41,4.25,4.25,0,0,1,1.89-.57,1.77,1.77,0,0,1,1.4.68,9.13,9.13,0,0,1,1.08,1.69c.34.68.68,1.42,1,2.22a9.87,9.87,0,0,0,1.32,2.22,6.82,6.82,0,0,0,1.93,1.69,5.48,5.48,0,0,0,2.86.68q9.59,0,11.25-29.26,0-1.32-.75-1.32a1.06,1.06,0,0,0-1,.61,27.57,27.57,0,0,1-9.65,8.38,26.74,26.74,0,0,1-12.24,2.79,17,17,0,0,1-5.76-.95,13.77,13.77,0,0,1-4.54-2.64,11.56,11.56,0,0,1-3-4,12.53,12.53,0,0,1-1-5.16,15.75,15.75,0,0,1,1-5.47,20.25,20.25,0,0,1,2.77-5.1,25.21,25.21,0,0,1,4.24-4.42,29.74,29.74,0,0,1,5.36-3.49,30.06,30.06,0,0,1,6.13-2.29A27.15,27.15,0,0,1,166.37,271.45ZM156,297.73a17.85,17.85,0,0,0,11-3.8,30.24,30.24,0,0,0,8.57-11.05,4.33,4.33,0,0,0,.13-.42,1.14,1.14,0,0,0,0-.33c0-.29-.31-.6-.92-.92a10.55,10.55,0,0,0-2.42-.84,34.11,34.11,0,0,0-3.41-.59,30.69,30.69,0,0,0-3.84-.24,17.53,17.53,0,0,0-6,1A18.32,18.32,0,0,0,154,283.4a15.1,15.1,0,0,0-3.61,4,8.85,8.85,0,0,0-1.36,4.66,5,5,0,0,0,1.91,4.13A7.76,7.76,0,0,0,156,297.73Z" fill="#ff142a" stroke="#000" stroke-miterlimit="10" stroke-width="2"/>
        <path d="M200.91,260.9a7.54,7.54,0,0,1-2.4-.37,6,6,0,0,1-1.93-1,5.46,5.46,0,0,1-1.3-1.61,4.3,4.3,0,0,1-.48-2,3.61,3.61,0,0,1,1.47-3,6.28,6.28,0,0,1,3.94-1.14,5.84,5.84,0,0,1,2.19.42,6.37,6.37,0,0,1,1.87,1.12,5.46,5.46,0,0,1,1.3,1.65,4.26,4.26,0,0,1,.48,2,3.56,3.56,0,0,1-1.38,3A6,6,0,0,1,200.91,260.9Zm-6,13.41a3,3,0,0,1,1.34-2.53,5.8,5.8,0,0,1,3.54-1q3.94,0,4.22,2.73c.11,1.26.24,2.68.37,4.26s.26,3.26.39,5,.25,3.6.36,5.49.19,3.75.28,5.58.16,3.6.22,5.3.09,3.25.09,4.66a3.76,3.76,0,0,1-1.56,3.29,7.82,7.82,0,0,1-4.55,1.1,3.26,3.26,0,0,1-2.13-.63,2.31,2.31,0,0,1-.77-1.87q0-6.06-.28-11.36c-.2-3.53-.4-6.67-.62-9.43s-.42-5-.62-6.88S194.89,275,194.89,274.31Z" fill="#ff142a" stroke="#000" stroke-miterlimit="10" stroke-width="2"/>
        <path d="M229.34,269.47a15,15,0,0,1,4.44.66,13.88,13.88,0,0,1,3.8,1.78,10.31,10.31,0,0,1,2.66,2.55,5,5,0,0,1,1,2.92,4.64,4.64,0,0,1-.39,1.87,5.41,5.41,0,0,1-1.06,1.58,5.48,5.48,0,0,1-1.49,1.1,3.9,3.9,0,0,1-1.76.42,2.68,2.68,0,0,1-1.85-.77c-.55-.51-1.15-1.08-1.78-1.71a13.19,13.19,0,0,0-2.11-1.72,4.94,4.94,0,0,0-2.79-.77,5.52,5.52,0,0,0-2.85.75,6.25,6.25,0,0,0-2.13,2.09,10.55,10.55,0,0,0-1.32,3.16,16.1,16.1,0,0,0-.46,4c0,4.1.77,7.23,2.33,9.38a7.73,7.73,0,0,0,6.68,3.23,8.59,8.59,0,0,0,3.53-.66,15.51,15.51,0,0,0,2.6-1.45l2-1.45a3.19,3.19,0,0,1,1.89-.66,2,2,0,0,1,1,.33,4,4,0,0,1,1,.84A4.92,4.92,0,0,1,243,298a2.91,2.91,0,0,1,.29,1.23,4.52,4.52,0,0,1-1.43,3,15.12,15.12,0,0,1-3.67,2.79,23.9,23.9,0,0,1-5,2,19.14,19.14,0,0,1-5.34.79,14.86,14.86,0,0,1-11.38-5.07,16.91,16.91,0,0,1-3.27-5.74,22.23,22.23,0,0,1-1.17-7.38,24.13,24.13,0,0,1,1.3-8.09,19.73,19.73,0,0,1,3.6-6.39,16.52,16.52,0,0,1,5.47-4.22A15.78,15.78,0,0,1,229.34,269.47Z" fill="#ff142a" stroke="#000" stroke-miterlimit="10" stroke-width="2"/>
        <path d="M253.2,287.71a9.74,9.74,0,0,0,1.3,4.9,13.82,13.82,0,0,0,3.41,4,16.09,16.09,0,0,0,4.83,2.63,17,17,0,0,0,5.58.95,10.12,10.12,0,0,0,1.8-.16,5.21,5.21,0,0,0,1.67-.55,3.53,3.53,0,0,0,1.23-1,2.52,2.52,0,0,0,.49-1.6,6.24,6.24,0,0,0-1.3-3.65,20.06,20.06,0,0,0-3.4-3.58A47.91,47.91,0,0,0,264,286c-1.82-1.19-3.66-2.37-5.54-3.54s-3.72-2.35-5.53-3.54a47.91,47.91,0,0,1-4.84-3.56,19.48,19.48,0,0,1-3.4-3.6,6.08,6.08,0,0,1-.4-6.94,10.49,10.49,0,0,1,2.4-2.75,17.61,17.61,0,0,1,3.47-2.2,28.56,28.56,0,0,1,4.13-1.62,30.08,30.08,0,0,1,4.33-1,27.66,27.66,0,0,1,4.15-.33c1,0,2,0,3.19.06a19.25,19.25,0,0,1,3.25.4,7.6,7.6,0,0,1,2.53,1,2.13,2.13,0,0,1,1,1.89,4.75,4.75,0,0,1-.14,1,10.87,10.87,0,0,1-.74,2,5.28,5.28,0,0,1-1.43,1.91,3.26,3.26,0,0,1-2.09.64,18.48,18.48,0,0,1-3.8-.42,20.16,20.16,0,0,0-4-.41,20.88,20.88,0,0,0-2.22.11,10,10,0,0,0-2,.39,3.63,3.63,0,0,0-1.5.84,1.83,1.83,0,0,0-.57,1.38,2.79,2.79,0,0,0,1.21,1.89,27.38,27.38,0,0,0,3.21,2.33q2,1.28,4.55,2.79c1.69,1,3.43,2.1,5.2,3.25s3.51,2.39,5.21,3.69a35.77,35.77,0,0,1,4.55,4.13,20.33,20.33,0,0,1,3.21,4.6,11.14,11.14,0,0,1,1.21,5,10.69,10.69,0,0,1-1.45,5.58,13.37,13.37,0,0,1-3.74,4,16.88,16.88,0,0,1-5.05,2.44,19.24,19.24,0,0,1-5.41.81,24.22,24.22,0,0,1-5.43-.63,28,28,0,0,1-5.29-1.81,25.87,25.87,0,0,1-4.77-2.81,20.43,20.43,0,0,1-3.84-3.69,17.11,17.11,0,0,1-2.58-4.42,13.25,13.25,0,0,1-.94-5,16.78,16.78,0,0,1,.15-2.22,7.32,7.32,0,0,1,.55-2,3.85,3.85,0,0,1,1.1-1.41,2.88,2.88,0,0,1,1.8-.54,5.79,5.79,0,0,1,.79.06,11.54,11.54,0,0,1,1.54.42,6.23,6.23,0,0,1,2.27,1.25A2.82,2.82,0,0,1,253.2,287.71Z" fill="#ff142a" stroke="#000" stroke-miterlimit="10" stroke-width="2"/>
        <path d="M284.93,263.41c0-3.16,2.05-4.75,6.16-4.75a3.07,3.07,0,0,1,1.84.57,2.2,2.2,0,0,1,.92,1.59c.27,1.78.5,3.56.71,5.31s.4,3.73.59,5.91.38,4.71.57,7.56.4,6.27.64,10.22a1.45,1.45,0,0,0,.2.88.57.57,0,0,0,.46.26c.26,0,.53-.26.79-.79a36.06,36.06,0,0,1,3.34-5.91,25,25,0,0,1,4-4.44,16.16,16.16,0,0,1,4.46-2.77,12.84,12.84,0,0,1,4.82-.94,10.06,10.06,0,0,1,5.89,1.84,15.19,15.19,0,0,1,4.48,5.23,29.92,29.92,0,0,1,2.85,8.2,52,52,0,0,1,1,10.74,12,12,0,0,1-.24,2.66,3.56,3.56,0,0,1-.81,1.65,3.07,3.07,0,0,1-1.58.86,11.11,11.11,0,0,1-2.51.24,4.44,4.44,0,0,1-3-.79,3.12,3.12,0,0,1-.9-2.46,53.44,53.44,0,0,0-.55-7.8,36.38,36.38,0,0,0-1.52-6.44,14.82,14.82,0,0,0-2.26-4.39,3.63,3.63,0,0,0-2.79-1.63q-3.39,0-6.75,5.49t-7,16.57a7.44,7.44,0,0,1-.79,1.67,3.54,3.54,0,0,1-2.46,1.6,10.43,10.43,0,0,1-2,.16,5,5,0,0,1-3.32-.88,4,4,0,0,1-1.07-2.9q-.27-7.65-.95-14.61t-1.4-12.62c-.49-3.76-.91-6.95-1.28-9.58A48.2,48.2,0,0,1,284.93,263.41Z" fill="#ff142a" stroke="#000" stroke-miterlimit="10" stroke-width="2"/>
        <path d="M362.1,267.32a14.58,14.58,0,0,1,4.66.75,13.35,13.35,0,0,1,3.95,2.06,10.28,10.28,0,0,1,2.75,3.17,8.19,8.19,0,0,1,1,4.08,4.11,4.11,0,0,1-.41,1.78,5.17,5.17,0,0,1-1.12,1.5,5.69,5.69,0,0,1-1.61,1,4.8,4.8,0,0,1-1.87.37l-.15,0a.37.37,0,0,1-.15,0,.39.39,0,0,1-.18,0l.18,3.52c.11,4.18.71,7.25,1.78,9.18s2.46,2.9,4.19,2.9a6.83,6.83,0,0,0,1.65-.18,10.32,10.32,0,0,0,1.36-.41c.43-.16.83-.3,1.21-.42a3.77,3.77,0,0,1,1.14-.18,2.32,2.32,0,0,1,1.78.88,3.07,3.07,0,0,1,.77,2.11,4,4,0,0,1-.94,2.46,9.79,9.79,0,0,1-2.48,2.22,14.64,14.64,0,0,1-3.48,1.61,12.82,12.82,0,0,1-3.91.61,7.94,7.94,0,0,1-6-2.83q-2.6-2.84-3.69-8.33c-.18-.59-.41-.88-.7-.88a1.17,1.17,0,0,0-.93.53,31.85,31.85,0,0,1-9.27,8.24,19.83,19.83,0,0,1-9.71,2.74,11.93,11.93,0,0,1-4-.65,8.75,8.75,0,0,1-3.06-1.87,8.22,8.22,0,0,1-1.93-2.95,10.41,10.41,0,0,1-.68-3.89,17,17,0,0,1,1.34-6.37,32.79,32.79,0,0,1,3.62-6.59,44.9,44.9,0,0,1,5.3-6.2,45.56,45.56,0,0,1,6.33-5.18,33.43,33.43,0,0,1,6.74-3.56A18.24,18.24,0,0,1,362.1,267.32Zm-1.45,15.21a9.78,9.78,0,0,1,1.45-2.18,3.43,3.43,0,0,1,1.89-.9c.65-.09,1-.29,1-.62a1.32,1.32,0,0,0-.27-.74,13.85,13.85,0,0,0-1.75-2,3.49,3.49,0,0,0-2.46-.86,8.87,8.87,0,0,0-3.74,1,23.39,23.39,0,0,0-4.2,2.57,39.63,39.63,0,0,0-4.17,3.64,38.62,38.62,0,0,0-3.63,4.2,25.49,25.49,0,0,0-2.55,4.26,9.31,9.31,0,0,0-1,3.78A3.19,3.19,0,0,0,342,297a2.94,2.94,0,0,0,2.22.84c2.4,0,5-1.28,7.87-3.82A44.71,44.71,0,0,0,360.65,282.53Z" fill="#ff142a" stroke="#000" stroke-miterlimit="10" stroke-width="2"/>
        <path d="M387.11,304.85c0-2.55-.08-5.32-.22-8.31s-.33-6-.55-9.07-.46-6.06-.71-9-.48-5.61-.7-8-.4-4.53-.55-6.28-.22-3-.22-3.7a3.07,3.07,0,0,1,1.32-2.68,8.28,8.28,0,0,1,5.69-.7,2.68,2.68,0,0,1,1.25.75,3.66,3.66,0,0,1,.77,1.38,10.27,10.27,0,0,1,.42,2.13c.12,1.18.22,2.43.31,3.76s.18,2.85.28,4.55.22,3.62.33,5.76.27,4.6.44,7.38a1.43,1.43,0,0,0,.22.88.65.65,0,0,0,.49.26c.32,0,.61-.26.87-.79a42.52,42.52,0,0,1,7.83-11.62q4.08-4,7.95-4a4.76,4.76,0,0,1,3.6,1.36,5,5,0,0,1,1.32,3.65,9.83,9.83,0,0,1-1.07,4.54A20.16,20.16,0,0,1,413.5,281a35.63,35.63,0,0,1-3.48,3.47c-1.24,1.08-2.4,2.14-3.47,3.16a23.71,23.71,0,0,0-2.68,3,5,5,0,0,0-1.08,3,3.92,3.92,0,0,0,1.61,2.79A18.73,18.73,0,0,0,409,299.2a57.19,57.19,0,0,0,7.43,2.68q4.4,1.31,10,2.49a2.19,2.19,0,0,1,1.25.7,2,2,0,0,1,.37,1.27,5,5,0,0,1-.44,2,8.42,8.42,0,0,1-1.1,1.89,6.31,6.31,0,0,1-1.47,1.41,2.84,2.84,0,0,1-1.56.55,18.93,18.93,0,0,1-3.56-.4c-1.37-.26-2.86-.62-4.46-1.07s-3.24-1-4.94-1.59-3.35-1.24-4.94-1.93-3.11-1.41-4.53-2.15a32.2,32.2,0,0,1-3.67-2.22c-.32-.18-.58-.32-.77-.44a1,1,0,0,0-.51-.18c-.17,0-.27.07-.3.2a4.36,4.36,0,0,0-.05.81,10.75,10.75,0,0,1-.24,2.51,3.05,3.05,0,0,1-.81,1.51,3.13,3.13,0,0,1-1.58.77,11.87,11.87,0,0,1-2.51.22,4,4,0,0,1-2.75-.74A3.64,3.64,0,0,1,387.11,304.85Z" fill="#ff142a" stroke="#000" stroke-miterlimit="10" stroke-width="2"/>
        <path d="M462,296.1a3.87,3.87,0,0,1,2.5-1.09,2.35,2.35,0,0,1,1.28.35,6.43,6.43,0,0,1,1.27,1.1,12.93,12.93,0,0,1,.95,1.64,3.1,3.1,0,0,1,.28,1.26,3.38,3.38,0,0,1-1.32,2.5,30,30,0,0,1-4.57,3.14,32.71,32.71,0,0,1-5.14,2.35,32.93,32.93,0,0,1-11.2,2,24,24,0,0,1-6.68-.9,19.18,19.18,0,0,1-5.56-2.57,16,16,0,0,1-4.11-4,15,15,0,0,1-2.37-5.3,5.15,5.15,0,0,0-.73-1.6,1.37,1.37,0,0,0-1.08-.37,3.66,3.66,0,0,1-2.5-.79,2.91,2.91,0,0,1-.88-2.29,2.14,2.14,0,0,1,.09-.79l.09-.88a4.22,4.22,0,0,1,.85-2.28,2.58,2.58,0,0,1,2-.71h.66a2.62,2.62,0,0,0,2.59-1.71,23.52,23.52,0,0,1,3.48-5.54,22.83,22.83,0,0,1,10.39-7.05,19.52,19.52,0,0,1,6.13-1,19.14,19.14,0,0,1,6.09.94,16.17,16.17,0,0,1,4.94,2.62,12.6,12.6,0,0,1,3.32,3.91,10.09,10.09,0,0,1,1.21,4.83,7.53,7.53,0,0,1-2.73,5.91,10.69,10.69,0,0,1-3.18,1.83,16.42,16.42,0,0,1-4.25.92L438.57,294a2.22,2.22,0,0,0-1.43.44,1.42,1.42,0,0,0-.55,1.18,3.39,3.39,0,0,0,.86,2.2,7.84,7.84,0,0,0,2.28,1.87A13.77,13.77,0,0,0,443,301a15.31,15.31,0,0,0,3.84.48,22,22,0,0,0,3.89-.37,25.86,25.86,0,0,0,4-1.08,28.57,28.57,0,0,0,3.8-1.69A24.37,24.37,0,0,0,462,296.1Zm-9.8-11.33a2.11,2.11,0,0,0,1.14-.64,1.76,1.76,0,0,0,.48-1.25,1.87,1.87,0,0,0-.48-1.23,4.64,4.64,0,0,0-1.32-1,7.68,7.68,0,0,0-1.93-.72,9.73,9.73,0,0,0-2.33-.27,13.77,13.77,0,0,0-3.69.53,15.29,15.29,0,0,0-3.43,1.39,10.11,10.11,0,0,0-2.5,1.89,3,3,0,0,0-1,2c0,.67.41,1,1.23,1,.5,0,1.3-.06,2.42-.18s2.34-.25,3.69-.41,2.71-.35,4.09-.55Z" fill="#ff142a" stroke="#000" stroke-miterlimit="10" stroke-width="2"/>
      </g>
    </g>
    <g>
      <path d="M352.57,162.35l-.87-7.51a2.08,2.08,0,0,0-1.09-1.59l-6.68-3.54A2.07,2.07,0,0,1,344,146l6.87-3.15a2.08,2.08,0,0,0,1.18-1.53l1.3-7.45a2.08,2.08,0,0,1,3.57-1.05l5.12,5.56a2,2,0,0,0,1.82.65l7.48-1.06a2.07,2.07,0,0,1,2.1,3.07l-3.7,6.59a2.06,2.06,0,0,0-.06,1.93l3.33,6.78a2.07,2.07,0,0,1-2.27,2.95l-7.41-1.49a2.07,2.07,0,0,0-1.85.55l-5.43,5.26A2.08,2.08,0,0,1,352.57,162.35Z" fill="#39ff14" stroke="#000" stroke-miterlimit="10" stroke-width="2"/>
      <path d="M298,105.3l2.64-7.09a2.07,2.07,0,0,0-.25-1.91l-4.34-6.19a2.08,2.08,0,0,1,1.79-3.27l7.55.32a2.07,2.07,0,0,0,1.75-.82l4.54-6a2.08,2.08,0,0,1,3.66.69l2,7.28a2.07,2.07,0,0,0,1.32,1.41l7.15,2.45a2.08,2.08,0,0,1,.48,3.7L320,100a2.06,2.06,0,0,0-.93,1.69l-.13,7.56a2.07,2.07,0,0,1-3.36,1.59l-5.92-4.7a2.1,2.1,0,0,0-1.9-.36L300.55,108A2.08,2.08,0,0,1,298,105.3Z" fill="#39ff14" stroke="#000" stroke-miterlimit="10" stroke-width="2"/>
      <path d="M259.19,80.28l-7.49,1a2.07,2.07,0,0,0-1.58,1.11l-3.44,6.73A2.08,2.08,0,0,1,243,89l-3.24-6.82a2.07,2.07,0,0,0-1.55-1.16l-7.46-1.2a2.07,2.07,0,0,1-1.1-3.55l5.49-5.2a2,2,0,0,0,.62-1.83l-1.17-7.46a2.08,2.08,0,0,1,3.05-2.15l6.63,3.62a2.11,2.11,0,0,0,1.94,0l6.74-3.42a2.08,2.08,0,0,1,3,2.24l-1.39,7.43a2.06,2.06,0,0,0,.57,1.84l5.34,5.36A2.08,2.08,0,0,1,259.19,80.28Z" fill="#39ff14" stroke="#000" stroke-miterlimit="10" stroke-width="2"/>
      <path d="M441.29,193.27l-6.65,3.6a2.08,2.08,0,0,0-1.07,1.61l-.8,7.51a2.08,2.08,0,0,1-3.5,1.29l-5.47-5.21a2.09,2.09,0,0,0-1.86-.53l-7.4,1.56a2.07,2.07,0,0,1-2.3-2.92l3.26-6.82a2.06,2.06,0,0,0-.07-1.93l-3.77-6.55a2.08,2.08,0,0,1,2.07-3.1l7.49,1a2.05,2.05,0,0,0,1.81-.67l5.07-5.61a2.07,2.07,0,0,1,3.58,1l1.37,7.44a2.09,2.09,0,0,0,1.2,1.52l6.9,3.08A2.08,2.08,0,0,1,441.29,193.27Z" fill="#39ff14" stroke="#000" stroke-miterlimit="10" stroke-width="2"/>
      <path d="M378.79,60.16l-7.26-2.11a2.05,2.05,0,0,0-1.89.38l-5.86,4.78a2.08,2.08,0,0,1-3.39-1.55l-.22-7.56a2.09,2.09,0,0,0-.95-1.68l-6.36-4.09a2.08,2.08,0,0,1,.43-3.7l7.11-2.55a2.07,2.07,0,0,0,1.31-1.42l1.93-7.31a2.08,2.08,0,0,1,3.65-.74l4.62,6a2.08,2.08,0,0,0,1.76.8l7.55-.42a2.07,2.07,0,0,1,1.83,3.24l-4.26,6.25a2.06,2.06,0,0,0-.22,1.91l2.73,7.05A2.07,2.07,0,0,1,378.79,60.16Z" fill="#39ff14" stroke="#000" stroke-miterlimit="10" stroke-width="2"/>
      <path d="M441.08,107.81l-7.26-2.12a2.06,2.06,0,0,0-1.89.39l-5.86,4.77a2.07,2.07,0,0,1-3.38-1.54l-.23-7.56a2.09,2.09,0,0,0-.95-1.68L415.16,96a2.07,2.07,0,0,1,.42-3.69l7.12-2.55A2.09,2.09,0,0,0,424,88.3L425.93,81a2.08,2.08,0,0,1,3.65-.73l4.63,6A2.08,2.08,0,0,0,436,87l7.55-.42a2.07,2.07,0,0,1,1.83,3.24l-4.26,6.24a2.11,2.11,0,0,0-.22,1.92l2.74,7A2.08,2.08,0,0,1,441.08,107.81Z" fill="#39ff14" stroke="#000" stroke-miterlimit="10" stroke-width="2"/>
      <path d="M286.79,183.09l-4.12-6.33a2.09,2.09,0,0,0-1.68-.95l-7.56-.19a2.08,2.08,0,0,1-1.56-3.38l4.76-5.88a2,2,0,0,0,.37-1.89l-2.14-7.25a2.08,2.08,0,0,1,2.73-2.53l7.06,2.71a2.07,2.07,0,0,0,1.91-.23l6.23-4.28A2.07,2.07,0,0,1,296,154.7l-.39,7.55a2.08,2.08,0,0,0,.81,1.76l6,4.6a2.08,2.08,0,0,1-.73,3.65l-7.3,2a2.09,2.09,0,0,0-1.42,1.31l-2.52,7.13A2.08,2.08,0,0,1,286.79,183.09Z" fill="#39ff14" stroke="#000" stroke-miterlimit="10" stroke-width="2"/>
    </g>
  </g>
</svg>
